<svg version="1.1" fill="#a00f2d" width="110" xmlns="http://www.w3.org/2000/svg" xmlns:xlink="http://www.w3.org/1999/xlink" viewBox="0 0 528.1 195.4"><path class="cls-1" d="M295.82,541.87c3.21,1.78,7.1,2.93,11,1.86a7.94,7.94,0,0,0,3.74-4.11,4.57,4.57,0,0,0-2.47-5.2c-3.82-1.71-9.12-2.09-10.77-6.9a11,11,0,0,1,1.2-5.2c3.51-2.63,8.37-2.78,12.41-1.31,1.12.85.6,2.49.37,3.57-2.91-.94-6.58-2.56-9.49-.55a2.74,2.74,0,0,0-1.12,3.72c4.56,3.57,14.65,3.42,12.93,12.49-.6,3.64-4.18,5.89-7.32,6.67a14.53,14.53,0,0,1-10.62-2c-.22-.94-.45-2.25.15-3" transform="translate(-185.13 -352.3)"></path><path class="cls-1" d="M324.53,520.31c5.53-.69,10.24.55,15.47.39a3,3,0,0,1,.38,2.56c-2.54.85-6-1.09-7.18,1.7l-.37,21.79c-.83.31-2.33.31-2.54-.78V523.8l-.53-.54h-6.43c-.6-.94-.75-3.64,1.2-3" transform="translate(-185.13 -352.3)"></path><path class="cls-1" d="M351.82,520.86c5.23-.55,9.64.3,14.87,0,.6.62.38,1.62.6,2.4l-.6.38L355,523.8c-1,2.09-1,5.59.37,7.45a60.76,60.76,0,0,1,11.29-.16c.68.54.3,1.63.38,2.41l-.53.38c-4.18.78-7.92-.77-11.81.54-.89,2.87.15,5.67-.23,8.92,1.43,1.39,3.9.46,5.39.93l.89-.31,5.91.15c1,.62.52,1.94.38,2.8a146.48,146.48,0,0,1-15.4,0c.59-9.15-.45-16.67.15-26" transform="translate(-185.13 -352.3)"></path><path class="cls-1" d="M392,532.56c-1.5-.16-3,.24-4.48-.54.67-2.25,1.35-4.89,2.83-6.51.83,2.17,2.1,4.1,2.32,6.51Zm9.49,13c-3.29-8.46-6.27-17.06-10-25.28-1-.15-2.55-.62-3.29.39-3.14,8.6-6.28,17.29-9.28,26,.45,1,1.35.23,2.33.54,2.31-3.64,2.47-8.29,5.38-11.55l7.69.16c2.25,3.41,2.78,7.51,4.64,11l1.64.16c.82.08,1-.69.9-1.47" transform="translate(-185.13 -352.3)"></path><path class="cls-1" d="M415.14,521c.75.24,2.47-1.24,2.54.61.3,3.26-.67,6.68.15,9.47h.91c3.65-3.57,6.72-6.59,10.23-10.08l3.44.24v.69c-3.74,3.8-7.92,6.9-11,11,2.92,5,7.85,9.3,10.47,14.34a3.85,3.85,0,0,1-3.44,0c-3-4.5-6.73-8.68-10-13-1-.31-.89.77-1.12,1.32l-.37,11.47c-.75.23-2.1.47-2.47-.31-.22-8.76.37-17,.67-25.74" transform="translate(-185.13 -352.3)"></path><path class="cls-1" d="M445.5,520.86c.44-.71,1.34-.24,1.94-.39,1.8,2.95-.45,7.29,1.27,10.46,4,.54,7.78-.31,11.89,0l.9-1.16c.22-3.18.08-5.43.14-8.52.68-.39,1.57-.86,2.32-.39.83,9.22,0,16.74,0,25.89a6.19,6.19,0,0,1-2.17.31l-.51-.7a59.65,59.65,0,0,0-.16-12.09c-3.88-.62-8.15-.39-12.41-.24L448,535l-.37,11.78c-.52.62-1.41.23-2.16.31l-.37-.7c-.16-9.54.21-17.44.37-25.5" transform="translate(-185.13 -352.3)"></path><path class="cls-1" d="M496.64,536.82c-1.27,3.34-4.19,6.67-7.93,7.14-3.21,0-6.43-.47-8.37-3.18a11.9,11.9,0,0,1-1.8-10.63,10.61,10.61,0,0,1,4.26-6c3.3-2,7.26-1,10.4.54,3.06,3.26,4.71,7.52,3.44,12.09m-.89-14.1c-4.2-3.42-9.36-3.64-14.21-1.47-3.6,1.85-5.61,5.73-6.44,9.46-1,5.81,1,11.54,5.91,14.88,4,1.62,9.42,2.63,13.09-.16a15.19,15.19,0,0,0,6-10.08,15.49,15.49,0,0,0-4.33-12.63" transform="translate(-185.13 -352.3)"></path><path class="cls-1" d="M512.64,520.47c.52-.85,1.2.15,2-.16l.51.7.23,18.07a6.29,6.29,0,0,0,3.36,4.1c1.12,1.08,2.47-.15,3.59.93,2.62-.7,5.39-2.24,6.14-5.18l.14-18.46c.53-.62,1.57-.38,2.17-.16l.52.94-.15,18.37c-.22,2.86-2.68,5.66-5.23,6.74-4,1.71-8.53.31-11.65-2.4a10.84,10.84,0,0,1-2-5.27Z" transform="translate(-185.13 -352.3)"></path><path class="cls-1" d="M544,541.7c3.51,1.71,7.85,3.11,11.67.94a5.5,5.5,0,0,0,2.46-5.82c-3.3-5.65-15.7-3.1-12.34-13.18,1.43-2.63,4.26-3.64,6.95-3.87,2.17.38,4.79.23,6.29,1.85l-.16,2.57c-2.62-.69-6.35-1.94-9.19-.39-1.72.78-1.12,2.87-.53,4.11,4.11,3.11,12.35,3,11.89,10.47a8.34,8.34,0,0,1-4.7,7.59c-3.67,2-8.9,1.17-12.34-.77,0-1.16-.82-2.41,0-3.5" transform="translate(-185.13 -352.3)"></path><path class="cls-1" d="M574.84,520.31c5.54-.54,9,.23,14.58,0a3.46,3.46,0,0,1,.16,2.56l-12,.77a13.56,13.56,0,0,0,0,6.52c3.73.7,7.69.23,11.88.39.61.7.38,1.93.16,2.78l-12.2.39c-.89,2.87.16,6.28-.15,8.92l1.19.92,11.16.4c.14.77.59,2.17-.39,2.79H575.06l-.51-.38V520.86Z" transform="translate(-185.13 -352.3)"></path><path class="cls-1" d="M609.36,527.41c1.35,0,3.32.23,3.32-1.77,0-1.53-1.2-1.72-2.37-1.72h-2.72v3.49Zm4.47,5.48h-1.39l-2.71-4.53h-2.14v4.53h-1.16v-9.83h4.15c2.51,0,3.37,1,3.37,2.6,0,1.93-1.31,2.65-3,2.7Zm2.9-4.93c0-4.28-3-7.62-7.14-7.62s-7.17,3.34-7.17,7.62,3,7.68,7.17,7.68,7.14-3.35,7.14-7.68m-15.66,0a8.51,8.51,0,1,1,8.52,8.85,8.66,8.66,0,0,1-8.52-8.85" transform="translate(-185.13 -352.3)"></path><path class="cls-1" d="M525.67,455.06c1.85.17,5.58-.7,6.42,2.1a27.47,27.47,0,0,1,1.35,10c-2.87,1.74-5.4,5.43-8.61,2.09-3.54-1.4-1.69-5.08-1.52-7.88,3-1,1.86-4.19,2.36-6.29M446,438.15c3.45-.49,7.38-.33,8.94,3.58a12,12,0,0,1-6.75,11.4c-1.56-.49-3.45-.82-4.08-2.77-.62-4.06-2.82-9.61,1.89-12.21m-1,27c2.67,1.23,5.35-1.08,7.57,1.08,2.81,3.22,2.07,8.14.74,11.83-.74,1.69-2.38,3.85-4.31,4-1.77-.62-4.6-.62-5-3.24-1.77-4.61.15-9.38,1-13.68M212.55,451.28c2.44-3,4.78-6.32,8.62-7.3,4.49.59,7.31,4,10.12,7.3,1.12,6.5.94,13.31-1.59,19.05-1.79,2.33-4.32,5-7.41,4.95-4.49,1.16-6.93-2.53-9-5.65-.57-4.65-1.88-9.12-.75-13.69ZM631.43,482a22.71,22.71,0,0,1,.27-3.15,18.26,18.26,0,0,0,.22-2.22,2.29,2.29,0,0,0-.13-.85l-.88-.09a5.88,5.88,0,0,0-1.59-.16l0,0-1,.4-5.9.4c-3.83.36-7.79.74-12.06-.14L610,476l-7.76-4.14-.46-.76a19.93,19.93,0,0,1-2.91-9.91,12.57,12.57,0,0,1,1.48-6c0,.07-.08.1-.09.16l.16-.32c0,.05,0,.11-.07.16,1.49-3.31,4.51-5,7-6.31l2.12-1.22c3.29-3.39,7.38-3.07,10.43-2.77a12,12,0,0,0,4.57-.07,9.77,9.77,0,0,1,6.09-.33,10.13,10.13,0,0,0,1.36.18c0-.25.11-.48.11-.74a24.64,24.64,0,0,0-.24-2.8,27.89,27.89,0,0,1-.28-3.52,12.62,12.62,0,0,1,.4-3,14.15,14.15,0,0,1-.39-3.24c0-.74,0-1.5.08-2.24s0-1.39,0-2a5.18,5.18,0,0,0-.65-2.91l-.29,0c-1.35-.16-2-.22-2.32.05l-1.06.94-1.41-.14a26.29,26.29,0,0,0-5.27.21,25.71,25.71,0,0,1-8.26-.19l-6,.72c-6.65.63-12.93,1.22-16.81,6l-.6.73-.88.3c-3.63,1.23-6.15,5-8.6,8.71l-.64,1-.44.34c-4.77,3.63-5,9.18-5.29,15.61,0,0-.39,5-.5,6.36a31.15,31.15,0,0,1,2.48,9.79,21.16,21.16,0,0,0,7.17,11.09l.9.68.27,1.08c.42,1.69,2.17,2.74,5,4.26a27.81,27.81,0,0,1,4.55,2.91l.36.29.26.39c.52.78,1.73.91,4.2,1a19.81,19.81,0,0,1,4.74.71,11.14,11.14,0,0,1,7.23,0,7.87,7.87,0,0,0,3.12.42l.51-.1.51.05a9.85,9.85,0,0,0,3.12-.48c2.21-.54,5.13-1.12,8,.41l2.1-.18a11,11,0,0,0,4.22-.79,11.37,11.37,0,0,0,.38-3.18c0-.43,0-.87,0-1.31s0-1,0-1.46a20.23,20.23,0,0,1,.57-4.81,9.51,9.51,0,0,1-.81-3.66M477,464.54c-.52-1.86-.77-2.49-1.73-3l-2.69-1.28,1.05-2.79a19.51,19.51,0,0,1,2.9-4.77c1.52-2,2.26-3.13,2.26-4.32a2.85,2.85,0,0,0-.11-.8l-.42-1.59,1-1.27a5.9,5.9,0,0,0,1.09-3.83,19.87,19.87,0,0,0-.53-4c-.59-.92-1.72-2.74-1.72-2.74-2.27-3.87-3.51-5.58-5.89-5.66l-1.36,0-.92-1c-2.35-2.57-7-2.35-10.8-2.18l-.28,0a48.55,48.55,0,0,1-13,0,29,29,0,0,1-10.23.34,35.47,35.47,0,0,0-6.78-.22c-3,1.95-6,.93-7.7.23a14.58,14.58,0,0,0-1.56-.57l-.31.31a.46.46,0,0,0-.14.36,7.29,7.29,0,0,0,.38,1.62,11.73,11.73,0,0,1,.65,3.49,6.56,6.56,0,0,1-1.16,3.48,6,6,0,0,0-.29,1.9,21.64,21.64,0,0,0,1.21,5.87l.37,1.23-.38,1a21.2,21.2,0,0,0-1.2,7.39,34.56,34.56,0,0,0,.6,6.23l.14.74-.2.71a24.39,24.39,0,0,0-.77,6.48,60.65,60.65,0,0,0,1.12,10.55l.24,1.37-.83,1.13a6.38,6.38,0,0,0-.85,3.63,14.46,14.46,0,0,0,.82,4.79l.6,1.63-1,1.41a8.44,8.44,0,0,0-1.11,4.61,9.49,9.49,0,0,0,.52,3.11c4.08.12,7.76.09,11.45-1.3l1.12-.43,1.13.41a16.45,16.45,0,0,0,10.82,0l1.54-.55,1.37.9a6.68,6.68,0,0,0,2.2.39l1.7.23a37.54,37.54,0,0,1,10.16-.31,42.66,42.66,0,0,0,6,.14l8.68-2.81c1.7-.67,2.42-2.36,3.44-5.08a23.52,23.52,0,0,1,2.16-4.66l.62-1,.74-.24c.07-.2.26-.72.33-.94,0-.58-.11-1.15-.11-1.71,0-1.38.12-2.71.24-3.95s.21-2.3.21-3.23a6.15,6.15,0,0,0-.88-3.49,10.27,10.27,0,0,1-3.91-6.11m235.63,21.53a19,19,0,0,0-.38-3.15,23.21,23.21,0,0,1-.49-4.29,12.89,12.89,0,0,1,.26-2.34l-3.16-2.4c-3.41-2.59-6.64-5-10.19-6l-1.91-.58-.8-3.43a20.81,20.81,0,0,1-.82-5.18,10.07,10.07,0,0,1,.64-3.55,1.69,1.69,0,0,0-.11.27l.15-.48a1.55,1.55,0,0,0,0,.21c.74-2.81,3-4.38,4.73-5.51l.37-.25c1.77-3.6,4.74-5.64,7.45-7.39a13.65,13.65,0,0,0,4.61-4.1,6.59,6.59,0,0,0-2.19-2.6l-.94-.78-.21-1.2c-.56-3.43-4.45-5.81-7.88-7.92L701,425l-.7.1c-2.85.36-3.16.63-3.32,1.28l-.4,1.63-1.58.61c-2.66,1-5.49,3.73-7.57,7.2l-.71,1.2-1.38.3c-.35.08-.94.88-1.46,1.57-1.08,1.47-2.55,3.47-5.29,4.06l-1.64.37-1.25-1.15a6.25,6.25,0,0,1-2-4.58,8.63,8.63,0,0,1-1.35-4.33,17.1,17.1,0,0,1,.75-4.47,13.47,13.47,0,0,0,.58-3.16c0-.14,0-.27-.05-.41-.6-.76-1.63-.82-5.38.13a21.59,21.59,0,0,1-5.2.87H661l-.55-1.22-.21,0a12.46,12.46,0,0,1-7.21.27c-.73-.14-1.38-.21-2-.28,0,.37-.11.72-.11.72l-.09.75a16.11,16.11,0,0,1,.54,3.64,39.44,39.44,0,0,1-.43,5,33.62,33.62,0,0,0-.38,4.17,8.43,8.43,0,0,0,.65,3.44l.48,1.11-.36,1.17a20.8,20.8,0,0,0-1,6.2,13.37,13.37,0,0,0,.51,3.84l.15.46-.2,8.12-.19,15.68.18,2a22.48,22.48,0,0,1,.24,2.87,9.58,9.58,0,0,1-.5,3.11,23.52,23.52,0,0,0-.4,4.42,37.71,37.71,0,0,0,.52,5.82l.55-.16a9.67,9.67,0,0,1,4.41-.75l.83.09.69.49a2.84,2.84,0,0,0,1.69.27l2.15-.66.78.87.48,0c3.23-2.56,6.55-1.25,8.24-.48s1.88.72,2.23.47l.6-.34c-.07-.36-.23-.88-.35-1.29a13.1,13.1,0,0,1-.8-4.06,7.36,7.36,0,0,1,.84-3.46l.21-.4.32-.34a2.94,2.94,0,0,0,.28-1.66c0-.36,0-.72,0-1.06s0-.87,0-1.32a10.24,10.24,0,0,1,.72-4.13l1.24-2.85,2.9,1.12c2.63,1,4.18,3.2,5.44,4.94l.88,1.2-.4-.42,3.67,3.84a26.38,26.38,0,0,0,4.29,4.21c3.61.14,5.77,2.52,7.23,4.18,1.14,1.3,1.84,2,2.74,2.18l1,.31.54.33a7.2,7.2,0,0,0,1.85-.08,9.24,9.24,0,0,1,4.8.32l.21.09.23.12a19.67,19.67,0,0,1,.73-4,10.77,10.77,0,0,0,.53-2.7,3,3,0,0,0-.26-1.28l-.61-1.38.66-1.35a4.86,4.86,0,0,0,.5-2.26m-146.05,7.36a41.4,41.4,0,0,1-4.22-10.79,36.87,36.87,0,0,0-3.34-9l-.37-.64-.05-.75a14.92,14.92,0,0,0-3.37-8.08l.36.4c-2.51-2.35-2.42-5.39-2.35-7.4,0-1.3,0-2.12-.28-2.49-3.85-3.24-4.26-7.64-4.56-11.22-.19-2.29-.37-4.46-1.3-5.9a15.43,15.43,0,0,1-2.35-6.83,11.54,11.54,0,0,0-1-3.75l-.11-.2-.09-.22c-.54-1.35-.62-1.57-4.18-.95a16.51,16.51,0,0,1-6.72,0,3.92,3.92,0,0,1-1.25-.09l-.59.17a8.15,8.15,0,0,1-5.9-.05l-4.53.19c-3.72.26-7.88.49-11.73-.37l-.36.17c-2.36,1.23-4.33,1.09-6-.17l-1-.27a6.23,6.23,0,0,0-.56,2.5,6.66,6.66,0,0,0,.16,1.46,10.71,10.71,0,0,1,.9,4.18,23.16,23.16,0,0,1-.6,4.67,18.3,18.3,0,0,0-.46,3.27,3.13,3.13,0,0,0,.62,1.92,7.84,7.84,0,0,0,1.09.09,7.41,7.41,0,0,1,6.09,2.46l.76,1.2-.06,3.78v1.08c0,3-.38,6.55-2.88,9.34A17.23,17.23,0,0,1,504,468c-.93,1.74-1.52,2.91-1.52,4.1a2.64,2.64,0,0,0,0,.28l.12,1.53L501.54,475c-2.06,2-2.79,5.24-3.55,8.66l-.56,2.51-1.28.13a16.58,16.58,0,0,1-2.85,7.38,13,13,0,0,0-1.81,4.11,14.71,14.71,0,0,0,1.65-.22,15.48,15.48,0,0,1,4.33-.21,10.2,10.2,0,0,1,5.31-.31l1.12.12a9.5,9.5,0,0,1,6.73-.11c1.47.41,1.85.37,2.14.2a3.89,3.89,0,0,0,.43-1l.31-1.44.93-.87.41-.94a8.22,8.22,0,0,1,2.38-3.82l.12-.1.12-.09c5-3.49,11.17-2.85,16.16-2.33l.91.08c6-.23,8.65,5.27,10.27,8.6,0,0,.24.47.46.93a6.5,6.5,0,0,0,5.05-.73l1.74-1,1.67,1.11c1.57,1,3.56.76,6.65.16l4.43-.81.71,1.57.51.09a3.08,3.08,0,0,0,.9-.61,13.85,13.85,0,0,0-.33-2.26s0-.15-.07-.31M401.72,424.26l.41-.15c-.17.08-.34.09-.51.16ZM336.14,486.4l-.42-.58V481c0-.67,0-1.33,0-2,0-2.86-.17-5.69-1.27-8l-.85-1.74,1.13-1.57A7.8,7.8,0,0,0,336,463a36.23,36.23,0,0,0-.5-5.11l-.54-4.64s.81-2.24,1-2.87c0-.48.05-1,.05-1.45a55.24,55.24,0,0,0-.53-6.6,57.27,57.27,0,0,1-.54-6.72,22,22,0,0,1,.71-5.58l-.21-3.33a9.57,9.57,0,0,0-.42-3.35,2.59,2.59,0,0,0-1.72.41l-1.7,2-2.3-1.24a10.71,10.71,0,0,0-4.58-.83l-1.83-.15-1.06.88-.34.16a6.13,6.13,0,0,1-6.06-.56,9,9,0,0,1-2.38.17,16.84,16.84,0,0,0-.39,2.9c0,.94.06,1.9.11,2.91s.12,2.12.12,3.26a24.24,24.24,0,0,1-.46,4.42A55.54,55.54,0,0,1,313,445c0,1.87-.06,3.69-.13,5.49s-.12,3.51-.12,5.22a42.07,42.07,0,0,0,.82,8.86l0,.93-.37,3.58c-.15,2.86-.38,6.38-3.17,8.9.06-.06.13-.09.19-.15l-.4.4c.09-.08.12-.17.21-.25-1.85,2-4.36,2.21-7.52.46l-.48-.27.31.14c-4.28-1.53-5-5.91-5.38-8.26l-.21-1.24.16-.65a.71.71,0,0,0,0-.21,6.45,6.45,0,0,0-.46-1.74,10.72,10.72,0,0,1-.74-3.51,6,6,0,0,1,.68-2.57,32.77,32.77,0,0,0,.42-5,33.25,33.25,0,0,0-.45-5.43l-.17-1.07.5-1a5.91,5.91,0,0,0,.34-2.44c0-.57,0-1.15,0-1.69,0,0,0-1.25,0-2.13a12.64,12.64,0,0,1-1.37-5.59,31.55,31.55,0,0,1,.53-5,25.62,25.62,0,0,0,.45-4,6.59,6.59,0,0,0-.45-2.38,8.28,8.28,0,0,0-3.35.7l-1.36.59-1.33-.64c-2.09-1-6.12-2.39-9.66-.4l-.49.28-.55.1a9.8,9.8,0,0,1-4.71-.47,7.78,7.78,0,0,0-.25,2.11c0,.9.08,1.85.13,2.68,0,0,.06.9.08,1.48a10.16,10.16,0,0,1,1,4.19,22.19,22.19,0,0,1-.58,4.43,17.42,17.42,0,0,0-.47,3.31,5.06,5.06,0,0,0,.34,1.85l.27.58-.17,6c-.08,2.21-.16,4.44-.16,6.64a43.73,43.73,0,0,0,.88,9.72l.21.92-.31.88a6.45,6.45,0,0,0-.33,2.15,21.88,21.88,0,0,0,.89,5.12s.45,2.21.74,3.67a15,15,0,0,1,3.85,6.73c1,2.89,1.45,4,3.12,4.49a14.39,14.39,0,0,1,5.64,2.46c1.94,1.25,2.84,1.73,3.93,1.48l1.22-.3,1.09.61c1.45.79,3.54.63,5.74.43l2-.12a12.91,12.91,0,0,0,2.84-1.3c2.31-1.27,5.17-2.85,8.9-1.94l1.39.33.69,1.26c.63,1.14,2,1.33,4.85,1.46l1.75.13.59-.11a10.42,10.42,0,0,1,3.78-.34l1.5.16c3.62.39,7.58.68,10.31-.77-.1-2.11-1.28-4.13-2.68-6.39ZM402,430.1a35.11,35.11,0,0,0-.55-5.77,12.65,12.65,0,0,1-5.69.4c-2.12-.24-2.55-.18-3.08.41l-2.44,2.78s-1.92-2.2-2.24-2.58l-.74,0a8.15,8.15,0,0,1-4.25-.79c-.71,0-1.44,0-1.44,0-1,0-1.51-.05-1.78.15l-.74.53-.89.07a41.88,41.88,0,0,1-11-1,11.77,11.77,0,0,1-9.15.22,7.72,7.72,0,0,0-4.27.3c-.07,2.23-.22,7-.22,7.08a12.39,12.39,0,0,1,.21,1.92,32.32,32.32,0,0,1-.26,3.51,24.61,24.61,0,0,0-.22,2.82,2.42,2.42,0,0,0,.44,1.64,4.88,4.88,0,0,1,1.37,0,13.32,13.32,0,0,1,5.33-.21l2.45.23.61.37c3,1.75,3.42,4.63,3.42,6.88,0,.52,0,1,0,1.42s-.05.83-.05,1.25a3,3,0,0,0,.19,1.31l.84,1.3-.5,1.48a12.93,12.93,0,0,0-.62,4.15,42,42,0,0,0,.51,5.45,47.18,47.18,0,0,1,.55,6.24,19,19,0,0,1-1.12,6.3,21.24,21.24,0,0,1,.53,4.53,48.83,48.83,0,0,1-.43,5.61,43,43,0,0,0-.39,4.89,14,14,0,0,0,.49,3.58,10.59,10.59,0,0,0,2.41.16l.54-.19a6.41,6.41,0,0,1,5-.21l2.66.22c1.79.28,2.47.33,3.09-.09,3.25-2.33,6.22-1,7.82-.22l.43.17a5,5,0,0,0,.18-.74,7.47,7.47,0,0,0-.55-2.66l-.26-.62.15-3.95c.09-2.14.19-4.32.19-6.47a42.75,42.75,0,0,0-.63-7.93l-.23-1.18.61-1a4.24,4.24,0,0,0,.45-2.07,21,21,0,0,0-.34-3.11,25.54,25.54,0,0,1-.41-3.95,10.14,10.14,0,0,1,.07-1.23l0-.34.1-.32a8.56,8.56,0,0,0,.38-2.7,27.43,27.43,0,0,0-.24-3.15,34.46,34.46,0,0,1-.27-3.77,12.8,12.8,0,0,1,1.19-5.66c2.57-5.86,7.58-4.82,10-4.31a5.5,5.5,0,0,0,2.47.17,11.11,11.11,0,0,0-.44-2.22l-.56-2.06.4-1a16.42,16.42,0,0,0,1-6M259.22,451.84l0-.95c0-.18,0-.36,0-.52A15.08,15.08,0,0,0,253,437.79l-.79-.56-.35-.91c-.83-2.13-2.74-3.63-4.94-5.36l-1-.79a13.31,13.31,0,0,1-5.12-2.75c-1.57-1.23-2.36-1.76-3.26-1.68l-1.21.11-1-.71c-3.39-2.47-8.8-2.43-13.58-2.41h-2.09l-.51-.17c-.62-.2-1.17,0-2.57.6a11.94,11.94,0,0,1-4.86,1.27,22.4,22.4,0,0,1-6.31,2.69,13.7,13.7,0,0,0-4.52,1.85,12.52,12.52,0,0,1-5.5,5.52c-1.86,1.09-2.63,1.63-2.91,2.66l-.37,1.37-1.27.66c-.4.2-.65.82-1.11,2.09a12.83,12.83,0,0,1-2.38,4.11c-.24.84-2,6.82-2.17,7.53,0,.82,0,4,0,4,0,1.3-.06,2.6-.06,3.91,0,5.36.51,10.54,3.63,14.16l.42.47.2.61c1.17,3.5,4.66,11.83,11.65,13.74l1,.27.64.74c2.08,2.41,5.6,3.19,9,3.93,0,0,1.66.38,1.89.45l1.6.08a9.69,9.69,0,0,1,4.18.78c5.68.68,13.66,1.07,18.65-3l.9-.72H240a6,6,0,0,0,2.6-1.06l2.9-1.39-.51.22c2.69-1.5,4.56-4,6.54-6.58a34.33,34.33,0,0,1,6.36-6.92c.66-.47.8-1.51.94-3.62s.42-4.88,2.25-7.13c0-1.09.1-2.51.1-2.51.07-1.33.14-2.57.14-3.75a12.8,12.8,0,0,0-1.6-6.95Z" transform="translate(-185.13 -352.3)"></path><path class="cls-1" d="M187.52,400c0-.27,1-.93,2.21-1.48s3.11-1.45,4.2-2,2.84-1.33,3.88-1.76,2.67-1.12,3.64-1.55,3.16-1.32,4.86-2,4.35-1.66,5.87-2.21,3.81-1.34,5.08-1.77,3.27-1,4.42-1.33,3.74-1.05,5.75-1.65,4.8-1.36,6.19-1.67,3.74-.69,5.2-.88,3.8-.42,5.19-.55,3.1-.32,3.76-.44,1.67-.27,2.22-.34,3-.45,12.12-.88,17.38-.87,18.35-1l3.76-.44c1.09-.13,4-.33,6.41-.44s5.41-.23,6.63-.23,3.16,0,4.31.11,2.95.21,4,.33,2.63.38,3.54.56,1.76.73,1.88,1.22a8.67,8.67,0,0,0,.56,1.54c.18.36.47.91.66,1.22a12.23,12.23,0,0,0,.77,1.1,8.71,8.71,0,0,0,1.55,1.33c.61.42,1.75,1.17,2.54,1.66a3,3,0,0,0,2.11.55,6,6,0,0,1,1.43-.45c.42-.06,1.17-.16,1.65-.21a9.48,9.48,0,0,0,1.78-.45c.48-.18,2-.82,3.42-1.44s3.19-1.39,4-1.76a17,17,0,0,1,3.1-1c.91-.18,2.3.72,3.09,2a4.7,4.7,0,0,0,3.54,3.21l2.65.77c1,.31,2.73.76,3.76,1s2.28.59,2.77.77,1.18.49,1.55.67a1.56,1.56,0,0,0,1.43-.23,18.18,18.18,0,0,1,1.66-1,10,10,0,0,1,1.88-.66,4.06,4.06,0,0,1,1.77,0c.43.12.77-.08.77-.45a6.38,6.38,0,0,1,.22-1.43c.13-.43.33-1.13.45-1.55a6,6,0,0,1,.66-1.44c.24-.36.59-.86.77-1.11a4.26,4.26,0,0,1,.89-.77c.3-.18,1.1-.58,1.77-.88a24.8,24.8,0,0,1,2.65-1c.79-.24,2.19-.64,3.1-.88s3.1-.79,4.86-1.22a41.13,41.13,0,0,0,4.53-1.32c.73-.31,1.83-.81,2.44-1.11A15.54,15.54,0,0,0,385,371c1.22-1.95,2.81-3.39,3.54-3.2l2.54.66a33.25,33.25,0,0,1,3.32,1.21c1.16.49,2.95,1.34,4,1.88s2.72,1.34,3.76,1.77a25.2,25.2,0,0,0,3.31,1.11c.8.18,2,.43,2.66.55s1.76.32,2.43.44a13.76,13.76,0,0,1,2.32.67,2.86,2.86,0,0,0,2.21-.22c.61-.37,1.56-.91,2.1-1.22s1.39-.85,1.88-1.21,1.19-.92,1.55-1.22a13.85,13.85,0,0,0,1.32-1.33,16.88,16.88,0,0,0,1.22-1.66,18.47,18.47,0,0,0,1-1.87,19.17,19.17,0,0,0,.77-2.22,2.43,2.43,0,0,1,1.55-1.54c.67-.19,1.81-.44,2.54-.56s2.62-.37,4.2-.55,4.27-.43,6-.56,4.59-.22,6.41-.22,4.87.05,6.75.12,4.87.25,6.64.44,4.54.42,6.18.55,4.23.42,5.75.67a60.69,60.69,0,0,1,7,1.76,14.49,14.49,0,0,1,6.3,4.2c1.15,1.58,5,.34,8.5-2.76s9.81-5.64,13.94-5.64,11.25-2.19,15.8-4.87,11.38-4.37,15.15-3.75,10.59,1.45,15.15,1.88A55.83,55.83,0,0,1,565.58,357a63.55,63.55,0,0,1,10.94,6.74,10.11,10.11,0,0,0,12.49-.77c3.35-3.1,9.32-4.79,13.26-3.76a33.61,33.61,0,0,1,12.83,7.52c3.1,3.1,6.74,5.83,8.07,6.08a29.23,29.23,0,0,0,3.21.44,9.45,9.45,0,0,1,1.77.23,15,15,0,0,1,1.66.44,5.25,5.25,0,0,0,.77.21c.06,0,.75.16,1.55.34a23.71,23.71,0,0,0,2.87.44,9.13,9.13,0,0,1,2.65.67,13.83,13.83,0,0,1,2.21,1.26,24.39,24.39,0,0,1,2,1.66,13.57,13.57,0,0,0,2,1.55c.58.33,2.72,1.28,4.76,2.1s5,2.17,6.68,3a38.61,38.61,0,0,0,4,1.77,17,17,0,0,0,2.1.38,7.4,7.4,0,0,0,2.16-.16,11.69,11.69,0,0,1,1.66-.33,2.83,2.83,0,0,1,1.1.11c.28.09,1.57.68,2.88,1.32s3.47,1.56,4.8,2.05a35.84,35.84,0,0,0,5.31,1.33c1.58.24,2.93.43,3,.43s.8.21,1.66.44a6.41,6.41,0,0,1,2,.89,7.45,7.45,0,0,0,3,.55,37,37,0,0,1,5.08.67c1.39.3.88.95,2.19,1.43a7.61,7.61,0,0,0,3.87.45,16.38,16.38,0,0,1,2.93-.55,16.58,16.58,0,0,1,3,.1,15.5,15.5,0,0,1,3,.78,10.15,10.15,0,0,1,2.49,1.54A5.88,5.88,0,0,1,712.9,400c.14.36.28.76.32.89a1.31,1.31,0,0,1-.16.67l-.18.22-.2.21a4.5,4.5,0,0,1-2.14.44h-3.4c-.84,0-1.68-.43-2.5-.44l-.81,0a11.33,11.33,0,0,1-2.21.29l-.36,0c-.36,0-.75,0-1.12,0s-.73-.32-1-.28l-.28,0a41.27,41.27,0,0,1-5.43.48h-4l-12,0-12.12-.06c-4,0-8.09.36-12.12.33-3.51,0-7.12-.44-10.81-.43l-11.09,0h-14.6c-3.76-.08-8.15-.19-9.75-.26s-4.22,0-5.82.06-4.21.19-5.81.2l-5.82.06c-1.59,0-4.28,0-6,0H582c-1.49,0-3,0-4.46,0l-4.5,0c-1.52,0-3.06-.29-4.63-.28-3.87.07-7.66.4-11.43.4s-7.51,0-11.23-.06l-11.18-.1c-3.75,0-7.52-.9-11.3-.9-3.23.05-6.46.93-9.71.93s-6.51,0-9.76,0h-9.72q-4.85,0-9.63,0l-2,0c-1.26-.94-3.89-1-5.85-.11l-5.3-.06c-2.2,0-4.36,0-6.51,0h-2.14c-2.3,0-4.32,0-4.48,0l-.89,0c-.33,0-.73.05-.89.05l-3.79,0c-1.93,0-5.07.06-7,.15s-5.06.09-7,0-5.06-.15-7-.14-3.39-.24-3.27-.54a1.58,1.58,0,0,0,.11-.87c-.06-.19-.44,0-.85.51a5.42,5.42,0,0,1-.95.92,21.54,21.54,0,0,1-2.73,0l-1.33,0c-1.33,0-2.69.05-4,.06s-2.69-.17-4-.15h-1.3a52.09,52.09,0,0,1-8.47-.6l-3.09-.05c-3.08-.05-6.23.59-9.36.57s-6.26,0-9.4,0h-3.13l-6.31,0-.16,0-.15,0-.15,0a3.69,3.69,0,0,1-.59-.61H372c-.53,0-1.6.69-2.14.68l-1.64,0c-.55,0-1.11,0-1.69,0-3.39.09-6.87-.18-10.38-.17s-7,.29-10.49.27-3.92,1.36-7.24,1.36-6.51,0-9.52.1q-3.37.06-6.74.07t-6.76,0c-2.25,0-7.48-1.44-9.74-1.47l-2.26,0-4.59-.1a.38.38,0,0,0-.1,0l-.11,0-.11,0-1.37.44h-.64c-2.72,0-3.38-.38-2-.38h-4.37c-4.25.1-8.47-.23-12.68-.19s-6.39,1.54-10.62,1.55-5-1.05-9.35-1h-4.3c-4.83-.21-8.86-.39-9-.41l-.35-.06-.35-.06-.35-.07a.8.8,0,0,0-.26,0l-.27,0-.27,0-.8.1-.42,0-1.31.05c-.45,0-.9-.28-1.34-.29h-.44a61.2,61.2,0,0,1-6.39.69h-2.75l-8.15,0c-2.69,0-5.38.28-8.06.29s-5.36-.28-8-.24c-1.43,0-3,0-4.5,0s-3.12-.35-4.64-.35-3,.38-4.34.32l-1.35-.07a5.62,5.62,0,0,1-2.29-.59c0-.16,0-.51,0-.77v-1" transform="translate(-185.13 -352.3)"></path><path class="cls-2" d="M295.82,541.87c3.21,1.78,7.1,2.93,11,1.86a7.94,7.94,0,0,0,3.74-4.11,4.57,4.57,0,0,0-2.47-5.2c-3.82-1.71-9.12-2.09-10.77-6.9a11,11,0,0,1,1.2-5.2c3.51-2.63,8.37-2.78,12.41-1.31,1.12.85.6,2.49.37,3.57-2.91-.94-6.58-2.56-9.49-.55a2.74,2.74,0,0,0-1.12,3.72c4.56,3.57,14.65,3.42,12.93,12.49-.6,3.64-4.18,5.89-7.32,6.67a14.53,14.53,0,0,1-10.62-2c-.22-.94-.45-2.25.15-3" transform="translate(-185.13 -352.3)"></path><path class="cls-2" d="M324.53,520.31c5.53-.69,10.24.55,15.47.39a3,3,0,0,1,.38,2.56c-2.54.85-6-1.09-7.18,1.7l-.37,21.79c-.83.31-2.33.31-2.54-.78V523.8l-.53-.54h-6.43c-.6-.94-.75-3.64,1.2-3" transform="translate(-185.13 -352.3)"></path><path class="cls-2" d="M351.82,520.86c5.23-.55,9.64.3,14.87,0,.6.62.38,1.62.6,2.4l-.6.38L355,523.8c-1,2.09-1,5.59.37,7.45a60.76,60.76,0,0,1,11.29-.16c.68.54.3,1.63.38,2.41l-.53.38c-4.18.78-7.92-.77-11.81.54-.89,2.87.15,5.67-.23,8.92,1.43,1.39,3.9.46,5.39.93l.89-.31,5.91.15c1,.62.52,1.94.38,2.8a146.48,146.48,0,0,1-15.4,0c.59-9.15-.45-16.67.15-26" transform="translate(-185.13 -352.3)"></path><path class="cls-2" d="M392,532.56c-1.5-.16-3,.24-4.48-.54.67-2.25,1.35-4.89,2.83-6.51.83,2.17,2.1,4.1,2.32,6.51Zm9.49,13c-3.29-8.46-6.27-17.06-10-25.28-1-.15-2.55-.62-3.29.39-3.14,8.6-6.28,17.29-9.28,26,.45,1,1.35.23,2.33.54,2.31-3.64,2.47-8.29,5.38-11.55l7.69.16c2.25,3.41,2.78,7.51,4.64,11l1.64.16c.82.08,1-.69.9-1.47" transform="translate(-185.13 -352.3)"></path><path class="cls-2" d="M415.14,521c.75.24,2.47-1.24,2.54.61.3,3.26-.67,6.68.15,9.47h.91c3.65-3.57,6.72-6.59,10.23-10.08l3.44.24v.69c-3.74,3.8-7.92,6.9-11,11,2.92,5,7.85,9.3,10.47,14.34a3.85,3.85,0,0,1-3.44,0c-3-4.5-6.73-8.68-10-13-1-.31-.89.77-1.12,1.32l-.37,11.47c-.75.23-2.1.47-2.47-.31-.22-8.76.37-17,.67-25.74" transform="translate(-185.13 -352.3)"></path><path class="cls-2" d="M445.5,520.86c.44-.71,1.34-.24,1.94-.39,1.8,2.95-.45,7.29,1.27,10.46,4,.54,7.78-.31,11.89,0l.9-1.16c.22-3.18.08-5.43.14-8.52.68-.39,1.57-.86,2.32-.39.83,9.22,0,16.74,0,25.89a6.19,6.19,0,0,1-2.17.31l-.51-.7a59.65,59.65,0,0,0-.16-12.09c-3.88-.62-8.15-.39-12.41-.24L448,535l-.37,11.78c-.52.62-1.41.23-2.16.31l-.37-.7c-.16-9.54.21-17.44.37-25.5" transform="translate(-185.13 -352.3)"></path><path class="cls-2" d="M496.64,536.82c-1.27,3.34-4.19,6.67-7.93,7.14-3.21,0-6.43-.47-8.37-3.18a11.9,11.9,0,0,1-1.8-10.63,10.61,10.61,0,0,1,4.26-6c3.3-2,7.26-1,10.4.54,3.06,3.26,4.71,7.52,3.44,12.09m-.89-14.1c-4.2-3.42-9.36-3.64-14.21-1.47-3.6,1.85-5.61,5.73-6.44,9.46-1,5.81,1,11.54,5.91,14.88,4,1.62,9.42,2.63,13.09-.16a15.19,15.19,0,0,0,6-10.08,15.49,15.49,0,0,0-4.33-12.63" transform="translate(-185.13 -352.3)"></path><path class="cls-2" d="M512.64,520.47c.52-.85,1.2.15,2-.16l.51.7.23,18.07a6.29,6.29,0,0,0,3.36,4.1c1.12,1.08,2.47-.15,3.59.93,2.62-.7,5.39-2.24,6.14-5.18l.14-18.46c.53-.62,1.57-.38,2.17-.16l.52.94-.15,18.37c-.22,2.86-2.68,5.66-5.23,6.74-4,1.71-8.53.31-11.65-2.4a10.84,10.84,0,0,1-2-5.27Z" transform="translate(-185.13 -352.3)"></path><path class="cls-2" d="M544,541.7c3.51,1.71,7.85,3.11,11.67.94a5.5,5.5,0,0,0,2.46-5.82c-3.3-5.65-15.7-3.1-12.34-13.18,1.43-2.63,4.26-3.64,6.95-3.87,2.17.38,4.79.23,6.29,1.85l-.16,2.57c-2.62-.69-6.35-1.94-9.19-.39-1.72.78-1.12,2.87-.53,4.11,4.11,3.11,12.35,3,11.89,10.47a8.34,8.34,0,0,1-4.7,7.59c-3.67,2-8.9,1.17-12.34-.77,0-1.16-.82-2.41,0-3.5" transform="translate(-185.13 -352.3)"></path><path class="cls-2" d="M574.84,520.31c5.54-.54,9,.23,14.58,0a3.46,3.46,0,0,1,.16,2.56l-12,.77a13.56,13.56,0,0,0,0,6.52c3.73.7,7.69.23,11.88.39.61.7.38,1.93.16,2.78l-12.2.39c-.89,2.87.16,6.28-.15,8.92l1.19.92,11.16.4c.14.77.59,2.17-.39,2.79H575.06l-.51-.38V520.86Z" transform="translate(-185.13 -352.3)"></path><path class="cls-2" d="M609.36,527.41c1.35,0,3.32.23,3.32-1.77,0-1.53-1.2-1.72-2.37-1.72h-2.72v3.49Zm4.47,5.48h-1.39l-2.71-4.53h-2.14v4.53h-1.16v-9.83h4.15c2.51,0,3.37,1,3.37,2.6,0,1.93-1.31,2.65-3,2.7Zm2.9-4.93c0-4.28-3-7.62-7.14-7.62s-7.17,3.34-7.17,7.62,3,7.68,7.17,7.68,7.14-3.35,7.14-7.68m-15.66,0a8.51,8.51,0,1,1,8.52,8.85,8.66,8.66,0,0,1-8.52-8.85" transform="translate(-185.13 -352.3)"></path><path class="cls-2" d="M525.67,455.06c1.85.17,5.58-.7,6.42,2.1a27.47,27.47,0,0,1,1.35,10c-2.87,1.74-5.4,5.43-8.61,2.09-3.54-1.4-1.69-5.08-1.52-7.88,3-1,1.86-4.19,2.36-6.29M446,438.15c3.45-.49,7.38-.33,8.94,3.58a12,12,0,0,1-6.75,11.4c-1.56-.49-3.45-.82-4.08-2.77-.62-4.06-2.82-9.61,1.89-12.21m-1,27c2.67,1.23,5.35-1.08,7.57,1.08,2.81,3.22,2.07,8.14.74,11.83-.74,1.69-2.38,3.85-4.31,4-1.77-.62-4.6-.62-5-3.24-1.77-4.61.15-9.38,1-13.68M212.55,451.28c2.44-3,4.78-6.32,8.62-7.3,4.49.59,7.31,4,10.12,7.3,1.12,6.5.94,13.31-1.59,19.05-1.79,2.33-4.32,5-7.41,4.95-4.49,1.16-6.93-2.53-9-5.65-.57-4.65-1.88-9.12-.75-13.69ZM631.43,482a22.71,22.71,0,0,1,.27-3.15,18.26,18.26,0,0,0,.22-2.22,2.29,2.29,0,0,0-.13-.85l-.88-.09a5.88,5.88,0,0,0-1.59-.16l0,0-1,.4-5.9.4c-3.83.36-7.79.74-12.06-.14L610,476l-7.76-4.14-.46-.76a19.93,19.93,0,0,1-2.91-9.91,12.57,12.57,0,0,1,1.48-6c0,.07-.08.1-.09.16l.16-.32c0,.05,0,.11-.07.16,1.49-3.31,4.51-5,7-6.31l2.12-1.22c3.29-3.39,7.38-3.07,10.43-2.77a12,12,0,0,0,4.57-.07,9.77,9.77,0,0,1,6.09-.33,10.13,10.13,0,0,0,1.36.18c0-.25.11-.48.11-.74a24.64,24.64,0,0,0-.24-2.8,27.89,27.89,0,0,1-.28-3.52,12.62,12.62,0,0,1,.4-3,14.15,14.15,0,0,1-.39-3.24c0-.74,0-1.5.08-2.24s0-1.39,0-2a5.18,5.18,0,0,0-.65-2.91l-.29,0c-1.35-.16-2-.22-2.32.05l-1.06.94-1.41-.14a26.29,26.29,0,0,0-5.27.21,25.71,25.71,0,0,1-8.26-.19l-6,.72c-6.65.63-12.93,1.22-16.81,6l-.6.73-.88.3c-3.63,1.23-6.15,5-8.6,8.71l-.64,1-.44.34c-4.77,3.63-5,9.18-5.29,15.61,0,0-.39,5-.5,6.36a31.15,31.15,0,0,1,2.48,9.79,21.16,21.16,0,0,0,7.17,11.09l.9.68.27,1.08c.42,1.69,2.17,2.74,5,4.26a27.81,27.81,0,0,1,4.55,2.91l.36.29.26.39c.52.78,1.73.91,4.2,1a19.81,19.81,0,0,1,4.74.71,11.14,11.14,0,0,1,7.23,0,7.87,7.87,0,0,0,3.12.42l.51-.1.51.05a9.85,9.85,0,0,0,3.12-.48c2.21-.54,5.13-1.12,8,.41l2.1-.18a11,11,0,0,0,4.22-.79,11.37,11.37,0,0,0,.38-3.18c0-.43,0-.87,0-1.31s0-1,0-1.46a20.23,20.23,0,0,1,.57-4.81,9.51,9.51,0,0,1-.81-3.66M477,464.54c-.52-1.86-.77-2.49-1.73-3l-2.69-1.28,1.05-2.79a19.51,19.51,0,0,1,2.9-4.77c1.52-2,2.26-3.13,2.26-4.32a2.85,2.85,0,0,0-.11-.8l-.42-1.59,1-1.27a5.9,5.9,0,0,0,1.09-3.83,19.87,19.87,0,0,0-.53-4c-.59-.92-1.72-2.74-1.72-2.74-2.27-3.87-3.51-5.58-5.89-5.66l-1.36,0-.92-1c-2.35-2.57-7-2.35-10.8-2.18l-.28,0a48.55,48.55,0,0,1-13,0,29,29,0,0,1-10.23.34,35.47,35.47,0,0,0-6.78-.22c-3,1.95-6,.93-7.7.23a14.58,14.58,0,0,0-1.56-.57l-.31.31a.46.46,0,0,0-.14.36,7.29,7.29,0,0,0,.38,1.62,11.73,11.73,0,0,1,.65,3.49,6.56,6.56,0,0,1-1.16,3.48,6,6,0,0,0-.29,1.9,21.64,21.64,0,0,0,1.21,5.87l.37,1.23-.38,1a21.2,21.2,0,0,0-1.2,7.39,34.56,34.56,0,0,0,.6,6.23l.14.74-.2.71a24.39,24.39,0,0,0-.77,6.48,60.65,60.65,0,0,0,1.12,10.55l.24,1.37-.83,1.13a6.38,6.38,0,0,0-.85,3.63,14.46,14.46,0,0,0,.82,4.79l.6,1.63-1,1.41a8.44,8.44,0,0,0-1.11,4.61,9.49,9.49,0,0,0,.52,3.11c4.08.12,7.76.09,11.45-1.3l1.12-.43,1.13.41a16.45,16.45,0,0,0,10.82,0l1.54-.55,1.37.9a6.68,6.68,0,0,0,2.2.39l1.7.23a37.54,37.54,0,0,1,10.16-.31,42.66,42.66,0,0,0,6,.14l8.68-2.81c1.7-.67,2.42-2.36,3.44-5.08a23.52,23.52,0,0,1,2.16-4.66l.62-1,.74-.24c.07-.2.26-.72.33-.94,0-.58-.11-1.15-.11-1.71,0-1.38.12-2.71.24-3.95s.21-2.3.21-3.23a6.15,6.15,0,0,0-.88-3.49,10.27,10.27,0,0,1-3.91-6.11m235.63,21.53a19,19,0,0,0-.38-3.15,23.21,23.21,0,0,1-.49-4.29,12.89,12.89,0,0,1,.26-2.34l-3.16-2.4c-3.41-2.59-6.64-5-10.19-6l-1.91-.58-.8-3.43a20.81,20.81,0,0,1-.82-5.18,10.07,10.07,0,0,1,.64-3.55,1.69,1.69,0,0,0-.11.27l.15-.48a1.55,1.55,0,0,0,0,.21c.74-2.81,3-4.38,4.73-5.51l.37-.25c1.77-3.6,4.74-5.64,7.45-7.39a13.65,13.65,0,0,0,4.61-4.1,6.59,6.59,0,0,0-2.19-2.6l-.94-.78-.21-1.2c-.56-3.43-4.45-5.81-7.88-7.92L701,425l-.7.1c-2.85.36-3.16.63-3.32,1.28l-.4,1.63-1.58.61c-2.66,1-5.49,3.73-7.57,7.2l-.71,1.2-1.38.3c-.35.08-.94.88-1.46,1.57-1.08,1.47-2.55,3.47-5.29,4.06l-1.64.37-1.25-1.15a6.25,6.25,0,0,1-2-4.58,8.63,8.63,0,0,1-1.35-4.33,17.1,17.1,0,0,1,.75-4.47,13.47,13.47,0,0,0,.58-3.16c0-.14,0-.27-.05-.41-.6-.76-1.63-.82-5.38.13a21.59,21.59,0,0,1-5.2.87H661l-.55-1.22-.21,0a12.46,12.46,0,0,1-7.21.27c-.73-.14-1.38-.21-2-.28,0,.37-.11.72-.11.72l-.09.75a16.11,16.11,0,0,1,.54,3.64,39.44,39.44,0,0,1-.43,5,33.62,33.62,0,0,0-.38,4.17,8.43,8.43,0,0,0,.65,3.44l.48,1.11-.36,1.17a20.8,20.8,0,0,0-1,6.2,13.37,13.37,0,0,0,.51,3.84l.15.46-.2,8.12-.19,15.68.18,2a22.48,22.48,0,0,1,.24,2.87,9.58,9.58,0,0,1-.5,3.11,23.52,23.52,0,0,0-.4,4.42,37.71,37.71,0,0,0,.52,5.82l.55-.16a9.67,9.67,0,0,1,4.41-.75l.83.09.69.49a2.84,2.84,0,0,0,1.69.27l2.15-.66.78.87.48,0c3.23-2.56,6.55-1.25,8.24-.48s1.88.72,2.23.47l.6-.34c-.07-.36-.23-.88-.35-1.29a13.1,13.1,0,0,1-.8-4.06,7.36,7.36,0,0,1,.84-3.46l.21-.4.32-.34a2.94,2.94,0,0,0,.28-1.66c0-.36,0-.72,0-1.06s0-.87,0-1.32a10.24,10.24,0,0,1,.72-4.13l1.24-2.85,2.9,1.12c2.63,1,4.18,3.2,5.44,4.94l.88,1.2-.4-.42,3.67,3.84a26.38,26.38,0,0,0,4.29,4.21c3.61.14,5.77,2.52,7.23,4.18,1.14,1.3,1.84,2,2.74,2.18l1,.31.54.33a7.2,7.2,0,0,0,1.85-.08,9.24,9.24,0,0,1,4.8.32l.21.09.23.12a19.67,19.67,0,0,1,.73-4,10.77,10.77,0,0,0,.53-2.7,3,3,0,0,0-.26-1.28l-.61-1.38.66-1.35a4.86,4.86,0,0,0,.5-2.26m-146.05,7.36a41.4,41.4,0,0,1-4.22-10.79,36.87,36.87,0,0,0-3.34-9l-.37-.64-.05-.75a14.92,14.92,0,0,0-3.37-8.08l.36.4c-2.51-2.35-2.42-5.39-2.35-7.4,0-1.3,0-2.12-.28-2.49-3.85-3.24-4.26-7.64-4.56-11.22-.19-2.29-.37-4.46-1.3-5.9a15.43,15.43,0,0,1-2.35-6.83,11.54,11.54,0,0,0-1-3.75l-.11-.2-.09-.22c-.54-1.35-.62-1.57-4.18-.95a16.51,16.51,0,0,1-6.72,0,3.92,3.92,0,0,1-1.25-.09l-.59.17a8.15,8.15,0,0,1-5.9-.05l-4.53.19c-3.72.26-7.88.49-11.73-.37l-.36.17c-2.36,1.23-4.33,1.09-6-.17l-1-.27a6.23,6.23,0,0,0-.56,2.5,6.66,6.66,0,0,0,.16,1.46,10.71,10.71,0,0,1,.9,4.18,23.16,23.16,0,0,1-.6,4.67,18.3,18.3,0,0,0-.46,3.27,3.13,3.13,0,0,0,.62,1.92,7.84,7.84,0,0,0,1.09.09,7.41,7.41,0,0,1,6.09,2.46l.76,1.2-.06,3.78v1.08c0,3-.38,6.55-2.88,9.34A17.23,17.23,0,0,1,504,468c-.93,1.74-1.52,2.91-1.52,4.1a2.64,2.64,0,0,0,0,.28l.12,1.53L501.54,475c-2.06,2-2.79,5.24-3.55,8.66l-.56,2.51-1.28.13a16.58,16.58,0,0,1-2.85,7.38,13,13,0,0,0-1.81,4.11,14.71,14.71,0,0,0,1.65-.22,15.48,15.48,0,0,1,4.33-.21,10.2,10.2,0,0,1,5.31-.31l1.12.12a9.5,9.5,0,0,1,6.73-.11c1.47.41,1.85.37,2.14.2a3.89,3.89,0,0,0,.43-1l.31-1.44.93-.87.41-.94a8.22,8.22,0,0,1,2.38-3.82l.12-.1.12-.09c5-3.49,11.17-2.85,16.16-2.33l.91.08c6-.23,8.65,5.27,10.27,8.6,0,0,.24.47.46.93a6.5,6.5,0,0,0,5.05-.73l1.74-1,1.67,1.11c1.57,1,3.56.76,6.65.16l4.43-.81.71,1.57.51.09a3.08,3.08,0,0,0,.9-.61,13.85,13.85,0,0,0-.33-2.26s0-.15-.07-.31M401.72,424.26l.41-.15c-.17.08-.34.09-.51.16ZM336.14,486.4l-.42-.58V481c0-.67,0-1.33,0-2,0-2.86-.17-5.69-1.27-8l-.85-1.74,1.13-1.57A7.8,7.8,0,0,0,336,463a36.23,36.23,0,0,0-.5-5.11l-.54-4.64s.81-2.24,1-2.87c0-.48.05-1,.05-1.45a55.24,55.24,0,0,0-.53-6.6,57.27,57.27,0,0,1-.54-6.72,22,22,0,0,1,.71-5.58l-.21-3.33a9.57,9.57,0,0,0-.42-3.35,2.59,2.59,0,0,0-1.72.41l-1.7,2-2.3-1.24a10.71,10.71,0,0,0-4.58-.83l-1.83-.15-1.06.88-.34.16a6.13,6.13,0,0,1-6.06-.56,9,9,0,0,1-2.38.17,16.84,16.84,0,0,0-.39,2.9c0,.94.06,1.9.11,2.91s.12,2.12.12,3.26a24.24,24.24,0,0,1-.46,4.42A55.54,55.54,0,0,1,313,445c0,1.87-.06,3.69-.13,5.49s-.12,3.51-.12,5.22a42.07,42.07,0,0,0,.82,8.86l0,.93-.37,3.58c-.15,2.86-.38,6.38-3.17,8.9.06-.06.13-.09.19-.15l-.4.4c.09-.08.12-.17.21-.25-1.85,2-4.36,2.21-7.52.46l-.48-.27.31.14c-4.28-1.53-5-5.91-5.38-8.26l-.21-1.24.16-.65a.71.71,0,0,0,0-.21,6.45,6.45,0,0,0-.46-1.74,10.72,10.72,0,0,1-.74-3.51,6,6,0,0,1,.68-2.57,32.77,32.77,0,0,0,.42-5,33.25,33.25,0,0,0-.45-5.43l-.17-1.07.5-1a5.91,5.91,0,0,0,.34-2.44c0-.57,0-1.15,0-1.69,0,0,0-1.25,0-2.13a12.64,12.64,0,0,1-1.37-5.59,31.55,31.55,0,0,1,.53-5,25.62,25.62,0,0,0,.45-4,6.59,6.59,0,0,0-.45-2.38,8.28,8.28,0,0,0-3.35.7l-1.36.59-1.33-.64c-2.09-1-6.12-2.39-9.66-.4l-.49.28-.55.1a9.8,9.8,0,0,1-4.71-.47,7.78,7.78,0,0,0-.25,2.11c0,.9.08,1.85.13,2.68,0,0,.06.9.08,1.48a10.16,10.16,0,0,1,1,4.19,22.19,22.19,0,0,1-.58,4.43,17.42,17.42,0,0,0-.47,3.31,5.06,5.06,0,0,0,.34,1.85l.27.58-.17,6c-.08,2.21-.16,4.44-.16,6.64a43.73,43.73,0,0,0,.88,9.72l.21.92-.31.88a6.45,6.45,0,0,0-.33,2.15,21.88,21.88,0,0,0,.89,5.12s.45,2.21.74,3.67a15,15,0,0,1,3.85,6.73c1,2.89,1.45,4,3.12,4.49a14.39,14.39,0,0,1,5.64,2.46c1.94,1.25,2.84,1.73,3.93,1.48l1.22-.3,1.09.61c1.45.79,3.54.63,5.74.43l2-.12a12.91,12.91,0,0,0,2.84-1.3c2.31-1.27,5.17-2.85,8.9-1.94l1.39.33.69,1.26c.63,1.14,2,1.33,4.85,1.46l1.75.13.59-.11a10.42,10.42,0,0,1,3.78-.34l1.5.16c3.62.39,7.58.68,10.31-.77-.1-2.11-1.28-4.13-2.68-6.39ZM402,430.1a35.11,35.11,0,0,0-.55-5.77,12.65,12.65,0,0,1-5.69.4c-2.12-.24-2.55-.18-3.08.41l-2.44,2.78s-1.92-2.2-2.24-2.58l-.74,0a8.15,8.15,0,0,1-4.25-.79c-.71,0-1.44,0-1.44,0-1,0-1.51-.05-1.78.15l-.74.53-.89.07a41.88,41.88,0,0,1-11-1,11.77,11.77,0,0,1-9.15.22,7.72,7.72,0,0,0-4.27.3c-.07,2.23-.22,7-.22,7.08a12.39,12.39,0,0,1,.21,1.92,32.32,32.32,0,0,1-.26,3.51,24.61,24.61,0,0,0-.22,2.82,2.42,2.42,0,0,0,.44,1.64,4.88,4.88,0,0,1,1.37,0,13.32,13.32,0,0,1,5.33-.21l2.45.23.61.37c3,1.75,3.42,4.63,3.42,6.88,0,.52,0,1,0,1.42s-.05.83-.05,1.25a3,3,0,0,0,.19,1.31l.84,1.3-.5,1.48a12.93,12.93,0,0,0-.62,4.15,42,42,0,0,0,.51,5.45,47.18,47.18,0,0,1,.55,6.24,19,19,0,0,1-1.12,6.3,21.24,21.24,0,0,1,.53,4.53,48.83,48.83,0,0,1-.43,5.61,43,43,0,0,0-.39,4.89,14,14,0,0,0,.49,3.58,10.59,10.59,0,0,0,2.41.16l.54-.19a6.41,6.41,0,0,1,5-.21l2.66.22c1.79.28,2.47.33,3.09-.09,3.25-2.33,6.22-1,7.82-.22l.43.17a5,5,0,0,0,.18-.74,7.47,7.47,0,0,0-.55-2.66l-.26-.62.15-3.95c.09-2.14.19-4.32.19-6.47a42.75,42.75,0,0,0-.63-7.93l-.23-1.18.61-1a4.24,4.24,0,0,0,.45-2.07,21,21,0,0,0-.34-3.11,25.54,25.54,0,0,1-.41-3.95,10.14,10.14,0,0,1,.07-1.23l0-.34.1-.32a8.56,8.56,0,0,0,.38-2.7,27.43,27.43,0,0,0-.24-3.15,34.46,34.46,0,0,1-.27-3.77,12.8,12.8,0,0,1,1.19-5.66c2.57-5.86,7.58-4.82,10-4.31a5.5,5.5,0,0,0,2.47.17,11.11,11.11,0,0,0-.44-2.22l-.56-2.06.4-1a16.42,16.42,0,0,0,1-6M259.22,451.84l0-.95c0-.18,0-.36,0-.52A15.08,15.08,0,0,0,253,437.79l-.79-.56-.35-.91c-.83-2.13-2.74-3.63-4.94-5.36l-1-.79a13.31,13.31,0,0,1-5.12-2.75c-1.57-1.23-2.36-1.76-3.26-1.68l-1.21.11-1-.71c-3.39-2.47-8.8-2.43-13.58-2.41h-2.09l-.51-.17c-.62-.2-1.17,0-2.57.6a11.94,11.94,0,0,1-4.86,1.27,22.4,22.4,0,0,1-6.31,2.69,13.7,13.7,0,0,0-4.52,1.85,12.52,12.52,0,0,1-5.5,5.52c-1.86,1.09-2.63,1.63-2.91,2.66l-.37,1.37-1.27.66c-.4.2-.65.82-1.11,2.09a12.83,12.83,0,0,1-2.38,4.11c-.24.84-2,6.82-2.17,7.53,0,.82,0,4,0,4,0,1.3-.06,2.6-.06,3.91,0,5.36.51,10.54,3.63,14.16l.42.47.2.61c1.17,3.5,4.66,11.83,11.65,13.74l1,.27.64.74c2.08,2.41,5.6,3.19,9,3.93,0,0,1.66.38,1.89.45l1.6.08a9.69,9.69,0,0,1,4.18.78c5.68.68,13.66,1.07,18.65-3l.9-.72H240a6,6,0,0,0,2.6-1.06l2.9-1.39-.51.22c2.69-1.5,4.56-4,6.54-6.58a34.33,34.33,0,0,1,6.36-6.92c.66-.47.8-1.51.94-3.62s.42-4.88,2.25-7.13c0-1.09.1-2.51.1-2.51.07-1.33.14-2.57.14-3.75a12.8,12.8,0,0,0-1.6-6.95Z" transform="translate(-185.13 -352.3)"></path><path class="cls-2" d="M187.52,400c0-.27,1-.93,2.21-1.48s3.11-1.45,4.2-2,2.84-1.33,3.88-1.76,2.67-1.12,3.64-1.55,3.16-1.32,4.86-2,4.35-1.66,5.87-2.21,3.81-1.34,5.08-1.77,3.27-1,4.42-1.33,3.74-1.05,5.75-1.65,4.8-1.36,6.19-1.67,3.74-.69,5.2-.88,3.8-.42,5.19-.55,3.1-.32,3.76-.44,1.67-.27,2.22-.34,3-.45,12.12-.88,17.38-.87,18.35-1l3.76-.44c1.09-.13,4-.33,6.41-.44s5.41-.23,6.63-.23,3.16,0,4.31.11,2.95.21,4,.33,2.63.38,3.54.56,1.76.73,1.88,1.22a8.67,8.67,0,0,0,.56,1.54c.18.36.47.91.66,1.22a12.23,12.23,0,0,0,.77,1.1,8.71,8.71,0,0,0,1.55,1.33c.61.42,1.75,1.17,2.54,1.66a3,3,0,0,0,2.11.55,6,6,0,0,1,1.43-.45c.42-.06,1.17-.16,1.65-.21a9.48,9.48,0,0,0,1.78-.45c.48-.18,2-.82,3.42-1.44s3.19-1.39,4-1.76a17,17,0,0,1,3.1-1c.91-.18,2.3.72,3.09,2a4.7,4.7,0,0,0,3.54,3.21l2.65.77c1,.31,2.73.76,3.76,1s2.28.59,2.77.77,1.18.49,1.55.67a1.56,1.56,0,0,0,1.43-.23,18.18,18.18,0,0,1,1.66-1,10,10,0,0,1,1.88-.66,4.06,4.06,0,0,1,1.77,0c.43.12.77-.08.77-.45a6.38,6.38,0,0,1,.22-1.43c.13-.43.33-1.13.45-1.55a6,6,0,0,1,.66-1.44c.24-.36.59-.86.77-1.11a4.26,4.26,0,0,1,.89-.77c.3-.18,1.1-.58,1.77-.88a24.8,24.8,0,0,1,2.65-1c.79-.24,2.19-.64,3.1-.88s3.1-.79,4.86-1.22a41.13,41.13,0,0,0,4.53-1.32c.73-.31,1.83-.81,2.44-1.11A15.54,15.54,0,0,0,385,371c1.22-1.95,2.81-3.39,3.54-3.2l2.54.66a33.25,33.25,0,0,1,3.32,1.21c1.16.49,2.95,1.34,4,1.88s2.72,1.34,3.76,1.77a25.2,25.2,0,0,0,3.31,1.11c.8.18,2,.43,2.66.55s1.76.32,2.43.44a13.76,13.76,0,0,1,2.32.67,2.86,2.86,0,0,0,2.21-.22c.61-.37,1.56-.91,2.1-1.22s1.39-.85,1.88-1.21,1.19-.92,1.55-1.22a13.85,13.85,0,0,0,1.32-1.33,16.88,16.88,0,0,0,1.22-1.66,18.47,18.47,0,0,0,1-1.87,19.17,19.17,0,0,0,.77-2.22,2.43,2.43,0,0,1,1.55-1.54c.67-.19,1.81-.44,2.54-.56s2.62-.37,4.2-.55,4.27-.43,6-.56,4.59-.22,6.41-.22,4.87.05,6.75.12,4.87.25,6.64.44,4.54.42,6.18.55,4.23.42,5.75.67a60.69,60.69,0,0,1,7,1.76,14.49,14.49,0,0,1,6.3,4.2c1.15,1.58,5,.34,8.5-2.76s9.81-5.64,13.94-5.64,11.25-2.19,15.8-4.87,11.38-4.37,15.15-3.75,10.59,1.45,15.15,1.88A55.83,55.83,0,0,1,565.58,357a63.55,63.55,0,0,1,10.94,6.74,10.11,10.11,0,0,0,12.49-.77c3.35-3.1,9.32-4.79,13.26-3.76a33.61,33.61,0,0,1,12.83,7.52c3.1,3.1,6.74,5.83,8.07,6.08a29.23,29.23,0,0,0,3.21.44,9.45,9.45,0,0,1,1.77.23,15,15,0,0,1,1.66.44,5.25,5.25,0,0,0,.77.21c.06,0,.75.16,1.55.34a23.71,23.71,0,0,0,2.87.44,9.13,9.13,0,0,1,2.65.67,13.83,13.83,0,0,1,2.21,1.26,24.39,24.39,0,0,1,2,1.66,13.57,13.57,0,0,0,2,1.55c.58.33,2.72,1.28,4.76,2.1s5,2.17,6.68,3a38.61,38.61,0,0,0,4,1.77,17,17,0,0,0,2.1.38,7.4,7.4,0,0,0,2.16-.16,11.69,11.69,0,0,1,1.66-.33,2.83,2.83,0,0,1,1.1.11c.28.09,1.57.68,2.88,1.32s3.47,1.56,4.8,2.05a35.84,35.84,0,0,0,5.31,1.33c1.58.24,2.93.43,3,.43s.8.21,1.66.44a6.41,6.41,0,0,1,2,.89,7.45,7.45,0,0,0,3,.55,37,37,0,0,1,5.08.67c1.39.3.88.95,2.19,1.43a7.61,7.61,0,0,0,3.87.45,16.38,16.38,0,0,1,2.93-.55,16.58,16.58,0,0,1,3,.1,15.5,15.5,0,0,1,3,.78,10.15,10.15,0,0,1,2.49,1.54A5.88,5.88,0,0,1,712.9,400c.14.36.28.76.32.89a1.31,1.31,0,0,1-.16.67l-.18.22-.2.21a4.5,4.5,0,0,1-2.14.44h-3.4c-.84,0-1.68-.43-2.5-.44l-.81,0a11.33,11.33,0,0,1-2.21.29l-.36,0c-.36,0-.75,0-1.12,0s-.73-.32-1-.28l-.28,0a41.27,41.27,0,0,1-5.43.48h-4l-12,0-12.12-.06c-4,0-8.09.36-12.12.33-3.51,0-7.12-.44-10.81-.43l-11.09,0h-14.6c-3.76-.08-8.15-.19-9.75-.26s-4.22,0-5.82.06-4.21.19-5.81.2l-5.82.06c-1.59,0-4.28,0-6,0H582c-1.49,0-3,0-4.46,0l-4.5,0c-1.52,0-3.06-.29-4.63-.28-3.87.07-7.66.4-11.43.4s-7.51,0-11.23-.06l-11.18-.1c-3.75,0-7.52-.9-11.3-.9-3.23.05-6.46.93-9.71.93s-6.51,0-9.76,0h-9.72q-4.85,0-9.63,0l-2,0c-1.26-.94-3.89-1-5.85-.11l-5.3-.06c-2.2,0-4.36,0-6.51,0h-2.14c-2.3,0-4.32,0-4.48,0l-.89,0c-.33,0-.73.05-.89.05l-3.79,0c-1.93,0-5.07.06-7,.15s-5.06.09-7,0-5.06-.15-7-.14-3.39-.24-3.27-.54a1.58,1.58,0,0,0,.11-.87c-.06-.19-.44,0-.85.51a5.42,5.42,0,0,1-.95.92,21.54,21.54,0,0,1-2.73,0l-1.33,0c-1.33,0-2.69.05-4,.06s-2.69-.17-4-.15h-1.3a52.09,52.09,0,0,1-8.47-.6l-3.09-.05c-3.08-.05-6.23.59-9.36.57s-6.26,0-9.4,0h-3.13l-6.31,0-.16,0-.15,0-.15,0a3.69,3.69,0,0,1-.59-.61H372c-.53,0-1.6.69-2.14.68l-1.64,0c-.55,0-1.11,0-1.69,0-3.39.09-6.87-.18-10.38-.17s-7,.29-10.49.27-3.92,1.36-7.24,1.36-6.51,0-9.52.1q-3.37.06-6.74.07t-6.76,0c-2.25,0-7.48-1.44-9.74-1.47l-2.26,0-4.59-.1a.38.38,0,0,0-.1,0l-.11,0-.11,0-1.37.44h-.64c-2.72,0-3.38-.38-2-.38h-4.37c-4.25.1-8.47-.23-12.68-.19s-6.39,1.54-10.62,1.55-5-1.05-9.35-1h-4.3c-4.83-.21-8.86-.39-9-.41l-.35-.06-.35-.06-.35-.07a.8.8,0,0,0-.26,0l-.27,0-.27,0-.8.1-.42,0-1.31.05c-.45,0-.9-.28-1.34-.29h-.44a61.2,61.2,0,0,1-6.39.69h-2.75l-8.15,0c-2.69,0-5.38.28-8.06.29s-5.36-.28-8-.24c-1.43,0-3,0-4.5,0s-3.12-.35-4.64-.35-3,.38-4.34.32l-1.35-.07a5.62,5.62,0,0,1-2.29-.59c0-.16,0-.51,0-.77v-1" transform="translate(-185.13 -352.3)"></path></svg>